<svg width="87" height="32" viewBox="0 0 87 32" fill="none" xmlns="http://www.w3.org/2000/svg">
<g filter="url(#filter0_d_854_437)">
<path d="M29.9128 7.63704C29.7871 7.31064 29.6052 7.0635 29.367 6.89564C29.1354 6.71845 28.8608 6.62986 28.5432 6.62986C27.994 6.62986 27.554 6.88631 27.2232 7.39923C26.8923 7.90282 26.7269 8.57893 26.7269 9.42758C26.7269 10.3322 26.899 11.0409 27.243 11.5538C27.5937 12.0574 28.0734 12.3092 28.6821 12.3092C29.099 12.3092 29.4497 12.16 29.7342 11.8616C30.0253 11.5632 30.237 11.1342 30.3694 10.5746H28.2157V8.81208H31.9077V11.0363C31.782 11.6331 31.567 12.188 31.2626 12.7009C30.9649 13.2138 30.5844 13.6288 30.1212 13.9459C29.6581 14.263 29.1354 14.4215 28.5531 14.4215C27.865 14.4215 27.2496 14.2117 26.7071 13.792C26.1711 13.363 25.751 12.7709 25.4466 12.0155C25.1489 11.2601 25 10.3975 25 9.42758C25 8.4577 25.1489 7.59507 25.4466 6.83969C25.751 6.07498 26.1711 5.48279 26.7071 5.06313C27.243 4.63415 27.8551 4.41966 28.5432 4.41966C29.3769 4.41966 30.0782 4.70409 30.6473 5.27296C30.9817 5.6035 31.2503 6.00804 31.453 6.48656C31.6967 7.06183 31.2126 7.63704 30.5879 7.63704H29.9128Z" fill="#18604A"/>
<path d="M34.5927 7.78499C34.7912 7.35601 34.9916 7.08215 35.2893 6.83969C35.5871 6.58789 35.9179 6.46199 36.2818 6.46199V8.99393H35.8153C35.3919 8.99393 35.0743 9.12449 34.8626 9.38561C34.6508 9.6374 34.545 10.085 34.545 10.7285V14.3516H32.8478V6.54592H34.545L34.5927 7.78499Z" fill="#18604A"/>
<path d="M42.3135 10.3228V10.3228C42.3135 10.7185 41.9791 11.0223 41.5835 11.0223H38.4428C38.4693 11.5072 38.5784 11.8802 38.7703 12.1414C38.9688 12.3932 39.2103 12.5191 39.4948 12.5191C39.9183 12.5191 40.2127 12.2673 40.3782 11.7637H42.1845C42.0919 12.2766 41.9231 12.7382 41.6783 13.1485C41.4401 13.5589 41.1391 13.8806 40.7752 14.1138C40.4112 14.3469 40.0043 14.4635 39.5544 14.4635C39.0118 14.4635 38.5288 14.3003 38.1054 13.9739C37.6819 13.6475 37.3511 13.1812 37.1129 12.575C36.8747 11.9688 36.7556 11.2601 36.7556 10.4487C36.7556 9.63741 36.8714 8.92865 37.1029 8.32248C37.3411 7.7163 37.672 7.25002 38.0954 6.92362C38.5189 6.59722 39.0052 6.43402 39.5544 6.43402C40.0903 6.43402 40.5667 6.59255 40.9836 6.90963C41.4004 7.2267 41.7246 7.679 41.9562 8.26652C42.1944 8.85404 42.3135 9.53949 42.3135 10.3228ZM40.5767 9.69336C40.5767 9.28303 40.4774 8.95663 40.2789 8.71416C40.0804 8.47169 39.8323 8.35045 39.5345 8.35045C39.25 8.35045 39.0085 8.46703 38.81 8.70017C38.6181 8.93331 38.499 9.26438 38.4527 9.69336H40.5767Z" fill="#18604A"/>
<path d="M48.4293 10.3228V10.3228C48.4293 10.7185 48.095 11.0223 47.6993 11.0223H44.5586C44.5851 11.5072 44.6943 11.8802 44.8862 12.1414C45.0846 12.3932 45.3262 12.5191 45.6107 12.5191C46.0341 12.5191 46.3286 12.2673 46.494 11.7637H48.3003C48.2077 12.2766 48.039 12.7382 47.7941 13.1485C47.5559 13.5589 47.2549 13.8806 46.891 14.1138C46.5271 14.3469 46.1201 14.4635 45.6702 14.4635C45.1277 14.4635 44.6446 14.3003 44.2212 13.9739C43.7977 13.6475 43.4669 13.1812 43.2287 12.575C42.9905 11.9688 42.8714 11.2601 42.8714 10.4487C42.8714 9.63741 42.9872 8.92865 43.2188 8.32248C43.457 7.7163 43.7878 7.25002 44.2113 6.92362C44.6347 6.59722 45.121 6.43402 45.6702 6.43402C46.2062 6.43402 46.6826 6.59255 47.0994 6.90963C47.5162 7.2267 47.8405 7.679 48.072 8.26652C48.3102 8.85404 48.4293 9.53949 48.4293 10.3228ZM46.6925 9.69336C46.6925 9.28303 46.5932 8.95663 46.3947 8.71416C46.1962 8.47169 45.9481 8.35045 45.6504 8.35045C45.3659 8.35045 45.1243 8.46703 44.9259 8.70017C44.734 8.93331 44.6149 9.26438 44.5686 9.69336H46.6925Z" fill="#18604A"/>
<path d="M52.6991 6.46199C53.3476 6.46199 53.8637 6.76042 54.2474 7.35726C54.6378 7.94478 54.833 8.75612 54.833 9.79128V14.3516H53.1458V10.113C53.1458 9.59078 53.0498 9.18511 52.8579 8.89601C52.666 8.60691 52.408 8.46236 52.0838 8.46236C51.7596 8.46236 51.5015 8.60691 51.3097 8.89601C51.1178 9.18511 51.0218 9.59078 51.0218 10.113V14.3516H49.3247V6.54592H51.0218V7.58108C51.1939 7.23603 51.4254 6.96558 51.7166 6.76974C52.0077 6.56458 52.3352 6.46199 52.6991 6.46199Z" fill="#18604A"/>
<path d="M55.7245 9.42758C55.7245 8.4577 55.8734 7.59507 56.1711 6.83969C56.4689 6.07498 56.8824 5.48279 57.4118 5.06313C57.9477 4.63415 58.5531 4.41966 59.228 4.41966C60.0551 4.41966 60.7631 4.72741 61.3519 5.3429C61.7078 5.71488 61.9924 6.1686 62.2057 6.70406C62.4373 7.28545 61.9548 7.86085 61.329 7.86085H60.6671C60.5282 7.45052 60.3297 7.13811 60.0716 6.92362C59.8202 6.70913 59.5324 6.60188 59.2082 6.60188C58.6855 6.60188 58.262 6.85834 57.9378 7.37125C57.6136 7.88417 57.4515 8.56961 57.4515 9.42758C57.4515 10.2855 57.6136 10.971 57.9378 11.4839C58.262 11.9968 58.6855 12.2533 59.2082 12.2533C59.5324 12.2533 59.8202 12.146 60.0716 11.9315C60.3297 11.717 60.5282 11.4046 60.6671 10.9943H62.533C62.3345 12.0574 61.9408 12.8967 61.3519 13.5122C60.7631 14.1184 60.0551 14.4215 59.228 14.4215C58.5531 14.4215 57.9477 14.2117 57.4118 13.792C56.8824 13.363 56.4689 12.7709 56.1711 12.0155C55.8734 11.2601 55.7245 10.3975 55.7245 9.42758Z" fill="#18604A"/>
<path d="M69.2295 6.54592C69.2295 6.54592 65.8561 16.8785 65.2 19.1224C64.544 21.3662 63.7832 18.5993 63.7832 18.5993L65.2 14.0858L63.3314 7.83222C63.1398 7.19084 63.6201 6.54592 64.2895 6.54592H64.8427L66.1089 12.0155L67.0311 8.08868C67.2434 7.18484 68.0497 6.54592 68.9781 6.54592H69.2295Z" fill="#18604A"/>
<path d="M69.5058 10.4487C69.5058 9.63741 69.6216 8.92865 69.8531 8.32248C70.0913 7.7163 70.4189 7.25002 70.8357 6.92362C71.2592 6.59722 71.7422 6.43402 72.2848 6.43402C72.9795 6.43402 73.5584 6.69047 74.0216 7.20339C74.2806 7.48621 74.4904 7.83282 74.6509 8.24323C74.8743 8.81487 74.3902 9.37162 73.7764 9.37162H73.1383C72.9861 8.77478 72.6917 8.47635 72.255 8.47635C71.944 8.47635 71.6959 8.64888 71.5106 8.99393C71.3253 9.32966 71.2327 9.81459 71.2327 10.4487C71.2327 11.0829 71.3253 11.5725 71.5106 11.9175C71.6959 12.2533 71.944 12.4211 72.255 12.4211C72.6917 12.4211 72.9861 12.1227 73.1383 11.5259H74.9446C74.7991 12.4398 74.4914 13.1579 74.0216 13.6801C73.5518 14.2024 72.9729 14.4635 72.2848 14.4635C71.7422 14.4635 71.2592 14.3003 70.8357 13.9739C70.4189 13.6475 70.0913 13.1812 69.8531 12.575C69.6216 11.9688 69.5058 11.2601 69.5058 10.4487Z" fill="#18604A"/>
<path d="M77.5496 4V14.3516H75.8524V4H77.5496Z" fill="#18604A"/>
<path d="M84 10.3228V10.3228C84 10.7185 83.6656 11.0223 83.27 11.0223H80.1293C80.1558 11.5072 80.2649 11.8802 80.4568 12.1414C80.6553 12.3932 80.8968 12.5191 81.1813 12.5191C81.6048 12.5191 81.8992 12.2673 82.0646 11.7637H83.871C83.7783 12.2766 83.6096 12.7382 83.3648 13.1485C83.1266 13.5589 82.8255 13.8806 82.4616 14.1138C82.0977 14.3469 81.6908 14.4635 81.2409 14.4635C80.6983 14.4635 80.2153 14.3003 79.7918 13.9739C79.3684 13.6475 79.0376 13.1812 78.7994 12.575C78.5612 11.9688 78.4421 11.2601 78.4421 10.4487C78.4421 9.63741 78.5579 8.92865 78.7894 8.32248C79.0276 7.7163 79.3585 7.25002 79.7819 6.92362C80.2054 6.59722 80.6917 6.43402 81.2409 6.43402C81.7768 6.43402 82.2532 6.59255 82.6701 6.90963C83.0869 7.2267 83.4111 7.679 83.6427 8.26652C83.8809 8.85404 84 9.53949 84 10.3228ZM82.2631 9.69336C82.2631 9.28303 82.1639 8.95663 81.9654 8.71416C81.7669 8.47169 81.5188 8.35045 81.221 8.35045C80.9365 8.35045 80.695 8.46703 80.4965 8.70017C80.3046 8.93331 80.1855 9.26438 80.1392 9.69336H82.2631Z" fill="#18604A"/>
<path d="M29.9128 7.63704C29.7871 7.31064 29.6052 7.0635 29.367 6.89564C29.1354 6.71845 28.8608 6.62986 28.5432 6.62986C27.994 6.62986 27.554 6.88631 27.2232 7.39923C26.8923 7.90282 26.7269 8.57893 26.7269 9.42758C26.7269 10.3322 26.899 11.0409 27.243 11.5538C27.5937 12.0574 28.0734 12.3092 28.6821 12.3092C29.099 12.3092 29.4497 12.16 29.7342 11.8616C30.0253 11.5632 30.237 11.1342 30.3694 10.5746H28.2157V8.81208H31.9077V11.0363C31.782 11.6331 31.567 12.188 31.2626 12.7009C30.9649 13.2138 30.5844 13.6288 30.1212 13.9459C29.6581 14.263 29.1354 14.4215 28.5531 14.4215C27.865 14.4215 27.2496 14.2117 26.7071 13.792C26.1711 13.363 25.751 12.7709 25.4466 12.0155C25.1489 11.2601 25 10.3975 25 9.42758C25 8.4577 25.1489 7.59507 25.4466 6.83969C25.751 6.07498 26.1711 5.48279 26.7071 5.06313C27.243 4.63415 27.8551 4.41966 28.5432 4.41966C29.3769 4.41966 30.0782 4.70409 30.6473 5.27296C30.9817 5.6035 31.2503 6.00804 31.453 6.48656C31.6967 7.06183 31.2126 7.63704 30.5879 7.63704H29.9128Z" stroke="#A5A5A5" stroke-width="0.2"/>
<path d="M34.5927 7.78499C34.7912 7.35601 34.9916 7.08215 35.2893 6.83969C35.5871 6.58789 35.9179 6.46199 36.2818 6.46199V8.99393H35.8153C35.3919 8.99393 35.0743 9.12449 34.8626 9.38561C34.6508 9.6374 34.545 10.085 34.545 10.7285V14.3516H32.8478V6.54592H34.545L34.5927 7.78499Z" stroke="#A5A5A5" stroke-width="0.2"/>
<path d="M42.3135 10.3228V10.3228C42.3135 10.7185 41.9791 11.0223 41.5835 11.0223H38.4428C38.4693 11.5072 38.5784 11.8802 38.7703 12.1414C38.9688 12.3932 39.2103 12.5191 39.4948 12.5191C39.9183 12.5191 40.2127 12.2673 40.3782 11.7637H42.1845C42.0919 12.2766 41.9231 12.7382 41.6783 13.1485C41.4401 13.5589 41.1391 13.8806 40.7752 14.1138C40.4112 14.3469 40.0043 14.4635 39.5544 14.4635C39.0118 14.4635 38.5288 14.3003 38.1054 13.9739C37.6819 13.6475 37.3511 13.1812 37.1129 12.575C36.8747 11.9688 36.7556 11.2601 36.7556 10.4487C36.7556 9.63741 36.8714 8.92865 37.1029 8.32248C37.3411 7.7163 37.672 7.25002 38.0954 6.92362C38.5189 6.59722 39.0052 6.43402 39.5544 6.43402C40.0903 6.43402 40.5667 6.59255 40.9836 6.90963C41.4004 7.2267 41.7246 7.679 41.9562 8.26652C42.1944 8.85404 42.3135 9.53949 42.3135 10.3228ZM40.5767 9.69336C40.5767 9.28303 40.4774 8.95663 40.2789 8.71416C40.0804 8.47169 39.8323 8.35045 39.5345 8.35045C39.25 8.35045 39.0085 8.46703 38.81 8.70017C38.6181 8.93331 38.499 9.26438 38.4527 9.69336H40.5767Z" stroke="#A5A5A5" stroke-width="0.2"/>
<path d="M48.4293 10.3228V10.3228C48.4293 10.7185 48.095 11.0223 47.6993 11.0223H44.5586C44.5851 11.5072 44.6943 11.8802 44.8862 12.1414C45.0846 12.3932 45.3262 12.5191 45.6107 12.5191C46.0341 12.5191 46.3286 12.2673 46.494 11.7637H48.3003C48.2077 12.2766 48.039 12.7382 47.7941 13.1485C47.5559 13.5589 47.2549 13.8806 46.891 14.1138C46.5271 14.3469 46.1201 14.4635 45.6702 14.4635C45.1277 14.4635 44.6446 14.3003 44.2212 13.9739C43.7977 13.6475 43.4669 13.1812 43.2287 12.575C42.9905 11.9688 42.8714 11.2601 42.8714 10.4487C42.8714 9.63741 42.9872 8.92865 43.2188 8.32248C43.457 7.7163 43.7878 7.25002 44.2113 6.92362C44.6347 6.59722 45.121 6.43402 45.6702 6.43402C46.2062 6.43402 46.6826 6.59255 47.0994 6.90963C47.5162 7.2267 47.8405 7.679 48.072 8.26652C48.3102 8.85404 48.4293 9.53949 48.4293 10.3228ZM46.6925 9.69336C46.6925 9.28303 46.5932 8.95663 46.3947 8.71416C46.1962 8.47169 45.9481 8.35045 45.6504 8.35045C45.3659 8.35045 45.1243 8.46703 44.9259 8.70017C44.734 8.93331 44.6149 9.26438 44.5686 9.69336H46.6925Z" stroke="#A5A5A5" stroke-width="0.2"/>
<path d="M52.6991 6.46199C53.3476 6.46199 53.8637 6.76042 54.2474 7.35726C54.6378 7.94478 54.833 8.75612 54.833 9.79128V14.3516H53.1458V10.113C53.1458 9.59078 53.0498 9.18511 52.8579 8.89601C52.666 8.60691 52.408 8.46236 52.0838 8.46236C51.7596 8.46236 51.5015 8.60691 51.3097 8.89601C51.1178 9.18511 51.0218 9.59078 51.0218 10.113V14.3516H49.3247V6.54592H51.0218V7.58108C51.1939 7.23603 51.4254 6.96558 51.7166 6.76974C52.0077 6.56458 52.3352 6.46199 52.6991 6.46199Z" stroke="#A5A5A5" stroke-width="0.2"/>
<path d="M55.7245 9.42758C55.7245 8.4577 55.8734 7.59507 56.1711 6.83969C56.4689 6.07498 56.8824 5.48279 57.4118 5.06313C57.9477 4.63415 58.5531 4.41966 59.228 4.41966C60.0551 4.41966 60.7631 4.72741 61.3519 5.3429C61.7078 5.71488 61.9924 6.1686 62.2057 6.70406C62.4373 7.28545 61.9548 7.86085 61.329 7.86085H60.6671C60.5282 7.45052 60.3297 7.13811 60.0716 6.92362C59.8202 6.70913 59.5324 6.60188 59.2082 6.60188C58.6855 6.60188 58.262 6.85834 57.9378 7.37125C57.6136 7.88417 57.4515 8.56961 57.4515 9.42758C57.4515 10.2855 57.6136 10.971 57.9378 11.4839C58.262 11.9968 58.6855 12.2533 59.2082 12.2533C59.5324 12.2533 59.8202 12.146 60.0716 11.9315C60.3297 11.717 60.5282 11.4046 60.6671 10.9943H62.533C62.3345 12.0574 61.9408 12.8967 61.3519 13.5122C60.7631 14.1184 60.0551 14.4215 59.228 14.4215C58.5531 14.4215 57.9477 14.2117 57.4118 13.792C56.8824 13.363 56.4689 12.7709 56.1711 12.0155C55.8734 11.2601 55.7245 10.3975 55.7245 9.42758Z" stroke="#A5A5A5" stroke-width="0.2"/>
<path d="M69.2295 6.54592C69.2295 6.54592 65.8561 16.8785 65.2 19.1224C64.544 21.3662 63.7832 18.5993 63.7832 18.5993L65.2 14.0858L63.3314 7.83222C63.1398 7.19084 63.6201 6.54592 64.2895 6.54592H64.8427L66.1089 12.0155L67.0311 8.08868C67.2434 7.18484 68.0497 6.54592 68.9781 6.54592H69.2295Z" stroke="#A5A5A5" stroke-width="0.2"/>
<path d="M69.5058 10.4487C69.5058 9.63741 69.6216 8.92865 69.8531 8.32248C70.0913 7.7163 70.4189 7.25002 70.8357 6.92362C71.2592 6.59722 71.7422 6.43402 72.2848 6.43402C72.9795 6.43402 73.5584 6.69047 74.0216 7.20339C74.2806 7.48621 74.4904 7.83282 74.6509 8.24323C74.8743 8.81487 74.3902 9.37162 73.7764 9.37162H73.1383C72.9861 8.77478 72.6917 8.47635 72.255 8.47635C71.944 8.47635 71.6959 8.64888 71.5106 8.99393C71.3253 9.32966 71.2327 9.81459 71.2327 10.4487C71.2327 11.0829 71.3253 11.5725 71.5106 11.9175C71.6959 12.2533 71.944 12.4211 72.255 12.4211C72.6917 12.4211 72.9861 12.1227 73.1383 11.5259H74.9446C74.7991 12.4398 74.4914 13.1579 74.0216 13.6801C73.5518 14.2024 72.9729 14.4635 72.2848 14.4635C71.7422 14.4635 71.2592 14.3003 70.8357 13.9739C70.4189 13.6475 70.0913 13.1812 69.8531 12.575C69.6216 11.9688 69.5058 11.2601 69.5058 10.4487Z" stroke="#A5A5A5" stroke-width="0.2"/>
<path d="M77.5496 4V14.3516H75.8524V4H77.5496Z" stroke="#A5A5A5" stroke-width="0.2"/>
<path d="M84 10.3228V10.3228C84 10.7185 83.6656 11.0223 83.27 11.0223H80.1293C80.1558 11.5072 80.2649 11.8802 80.4568 12.1414C80.6553 12.3932 80.8968 12.5191 81.1813 12.5191C81.6048 12.5191 81.8992 12.2673 82.0646 11.7637H83.871C83.7783 12.2766 83.6096 12.7382 83.3648 13.1485C83.1266 13.5589 82.8255 13.8806 82.4616 14.1138C82.0977 14.3469 81.6908 14.4635 81.2409 14.4635C80.6983 14.4635 80.2153 14.3003 79.7918 13.9739C79.3684 13.6475 79.0376 13.1812 78.7994 12.575C78.5612 11.9688 78.4421 11.2601 78.4421 10.4487C78.4421 9.63741 78.5579 8.92865 78.7894 8.32248C79.0276 7.7163 79.3585 7.25002 79.7819 6.92362C80.2054 6.59722 80.6917 6.43402 81.2409 6.43402C81.7768 6.43402 82.2532 6.59255 82.6701 6.90963C83.0869 7.2267 83.4111 7.679 83.6427 8.26652C83.8809 8.85404 84 9.53949 84 10.3228ZM82.2631 9.69336C82.2631 9.28303 82.1639 8.95663 81.9654 8.71416C81.7669 8.47169 81.5188 8.35045 81.221 8.35045C80.9365 8.35045 80.695 8.46703 80.4965 8.70017C80.3046 8.93331 80.1855 9.26438 80.1392 9.69336H82.2631Z" stroke="#A5A5A5" stroke-width="0.2"/>
</g>
<path fill-rule="evenodd" clip-rule="evenodd" d="M11.5 23.0545C17.299 23.0545 22 18.2837 22 12.3986C22 6.5135 17.299 1.74268 11.5 1.74268C5.70102 1.74268 1 6.5135 1 12.3986C1 18.2837 5.70102 23.0545 11.5 23.0545Z" fill="#9BDEE0"/>
<mask id="mask0_854_437" style="mask-type:alpha" maskUnits="userSpaceOnUse" x="1" y="1" width="21" height="23">
<path fill-rule="evenodd" clip-rule="evenodd" d="M11.5 23.0545C17.299 23.0545 22 18.2837 22 12.3986C22 6.5135 17.299 1.74268 11.5 1.74268C5.70102 1.74268 1 6.5135 1 12.3986C1 18.2837 5.70102 23.0545 11.5 23.0545Z" fill="#FFB8B8"/>
</mask>
<g mask="url(#mask0_854_437)">
<g filter="url(#filter1_d_854_437)">
<g filter="url(#filter2_d_854_437)">
<path fill-rule="evenodd" clip-rule="evenodd" d="M7.20459 20.9961C7.20459 20.9961 9.05197 9.03826 23.1727 5.53697C37.2932 2.03567 18.6187 22.4627 18.6187 22.4627L8.59033 22.6156L7.20459 20.9961Z" fill="#5786FF"/>
</g>
<path fill-rule="evenodd" clip-rule="evenodd" d="M16.4261 5.73566C16.5114 5.7055 16.6062 5.72679 16.6709 5.79065C16.6709 5.79065 18.7784 15.6678 21.5228 13.7303C24.2671 11.7929 18.8979 21.3808 18.8979 21.3808L6.95539 9.45402C6.82934 9.32813 6.87726 9.11172 7.04426 9.0527C7.04426 9.0527 8.51708 9.85543 10.9034 8.16017C13.2898 6.46491 16.4261 5.73566 16.4261 5.73566Z" fill="url(#paint0_linear_854_437)"/>
</g>
</g>
<path fill-rule="evenodd" clip-rule="evenodd" d="M13.2898 5.13278C13.6193 5.13278 13.8864 4.8617 13.8864 4.52733C13.8864 4.19295 13.6193 3.92188 13.2898 3.92188C12.9603 3.92188 12.6932 4.19295 12.6932 4.52733C12.6932 4.8617 12.9603 5.13278 13.2898 5.13278ZM5.76653 14.4564C6.03013 14.4564 6.2438 14.2395 6.2438 13.972C6.2438 13.7045 6.03013 13.4877 5.76653 13.4877C5.50293 13.4877 5.28926 13.7045 5.28926 13.972C5.28926 14.2395 5.50293 14.4564 5.76653 14.4564ZM11.7403 6.52013C11.905 6.52013 12.0386 6.38458 12.0386 6.2174C12.0386 6.0502 11.905 5.91468 11.7403 5.91468C11.5756 5.91468 11.442 6.0502 11.442 6.2174C11.442 6.38458 11.5756 6.52013 11.7403 6.52013ZM4.11202 14.7828C4.27675 14.7828 4.41031 14.6473 4.41031 14.4801C4.41031 14.3129 4.27675 14.1773 4.11202 14.1773C3.94726 14.1773 3.81372 14.3129 3.81372 14.4801C3.81372 14.6473 3.94726 14.7828 4.11202 14.7828ZM8.52779 5.68885C8.69255 5.68885 8.82609 5.55332 8.82609 5.38612C8.82609 5.21894 8.69255 5.0834 8.52779 5.0834C8.36306 5.0834 8.2295 5.21894 8.2295 5.38612C8.2295 5.55332 8.36306 5.68885 8.52779 5.68885ZM7.08523 8.5233C7.28292 8.5233 7.44319 8.36065 7.44319 8.16003C7.44319 7.95941 7.28292 7.79676 7.08523 7.79676C6.88755 7.79676 6.72728 7.95941 6.72728 8.16003C6.72728 8.36065 6.88755 8.5233 7.08523 8.5233Z" fill="#D2E6F5"/>
<g filter="url(#filter3_d_854_437)">
<path fill-rule="evenodd" clip-rule="evenodd" d="M5.34178 5.90039C6.36722 8.49005 1.51524 20.4851 10.9303 19.4495C17.0838 17.4533 12.048 6.82266 5.34178 5.90039Z" fill="#18604A"/>
<path fill-rule="evenodd" clip-rule="evenodd" d="M11.1056 21.5577C11.1056 21.5577 7.67672 9.18784 6.03857 6.65479C6.03857 6.65479 11.2173 15.6823 12.2909 22.0272L11.1056 21.5577Z" fill="#FCFCFC"/>
<path fill-rule="evenodd" clip-rule="evenodd" d="M19.6363 0C18.3715 3.62143 25.6878 19.8385 12.7121 18.9609C4.15875 16.5724 10.4851 1.65769 19.6363 0Z" fill="#18604A"/>
<path fill-rule="evenodd" clip-rule="evenodd" d="M12.5872 21.8703C12.5872 21.8703 16.6124 4.65694 18.7216 1.07764C18.7216 1.07764 11.9283 14.4662 10.8035 23.2558L12.5872 21.8703Z" fill="#FCFCFC"/>
</g>
<path d="M25.1904 16.8672H25.9858C26.1489 16.8672 26.2891 16.8916 26.4062 16.9404C26.5244 16.9893 26.6152 17.0615 26.6787 17.1572C26.7422 17.2529 26.7739 17.3706 26.7739 17.5103C26.7739 17.6245 26.7544 17.7227 26.7153 17.8047C26.6772 17.8857 26.623 17.9536 26.5527 18.0083C26.4834 18.062 26.4019 18.105 26.3081 18.1372L26.1689 18.2104H25.4775L25.4746 17.8677H25.9888C26.0659 17.8677 26.1299 17.854 26.1807 17.8267C26.2314 17.7993 26.2695 17.7612 26.2949 17.7124C26.3213 17.6636 26.3345 17.6069 26.3345 17.5425C26.3345 17.4741 26.3218 17.415 26.2964 17.3652C26.271 17.3154 26.2324 17.2773 26.1807 17.251C26.1289 17.2246 26.064 17.2114 25.9858 17.2114H25.6299V19H25.1904V16.8672ZM26.3828 19L25.8965 18.0493L26.3608 18.0464L26.853 18.9795V19H26.3828ZM27.8154 19.0293C27.6924 19.0293 27.582 19.0098 27.4844 18.9707C27.3867 18.9307 27.3037 18.8755 27.2354 18.8052C27.168 18.7349 27.1162 18.6533 27.0801 18.5605C27.0439 18.4668 27.0259 18.3672 27.0259 18.2617V18.2031C27.0259 18.083 27.043 17.9731 27.0771 17.8735C27.1113 17.7739 27.1602 17.6875 27.2236 17.6143C27.2881 17.541 27.3662 17.4849 27.458 17.4458C27.5498 17.4058 27.6533 17.3857 27.7686 17.3857C27.8809 17.3857 27.9805 17.4043 28.0674 17.4414C28.1543 17.4785 28.2271 17.5312 28.2856 17.5996C28.3452 17.668 28.3901 17.75 28.4204 17.8457C28.4507 17.9404 28.4658 18.0459 28.4658 18.1621V18.3379H27.2061V18.0566H28.0513V18.0244C28.0513 17.9658 28.0405 17.9136 28.019 17.8677C27.9985 17.8208 27.9673 17.7837 27.9253 17.7563C27.8833 17.729 27.8296 17.7153 27.7642 17.7153C27.7085 17.7153 27.6606 17.7275 27.6206 17.752C27.5806 17.7764 27.5479 17.8105 27.5225 17.8545C27.498 17.8984 27.4795 17.9502 27.4668 18.0098C27.4551 18.0684 27.4492 18.1328 27.4492 18.2031V18.2617C27.4492 18.3252 27.458 18.3838 27.4756 18.4375C27.4941 18.4912 27.52 18.5376 27.5532 18.5767C27.5874 18.6157 27.6284 18.646 27.6763 18.6675C27.7251 18.689 27.7803 18.6997 27.8418 18.6997C27.918 18.6997 27.9888 18.6851 28.0542 18.6558C28.1206 18.6255 28.1777 18.5801 28.2256 18.5195L28.4307 18.7422C28.3975 18.79 28.3521 18.8359 28.2944 18.8799C28.2378 18.9238 28.1694 18.96 28.0894 18.9883C28.0093 19.0156 27.918 19.0293 27.8154 19.0293ZM29.3608 18.6997C29.4126 18.6997 29.4585 18.6899 29.4985 18.6704C29.5386 18.6499 29.5698 18.6216 29.5923 18.5854C29.6157 18.5483 29.6279 18.5049 29.6289 18.4551H30.0259C30.0249 18.5664 29.9951 18.6655 29.9365 18.7524C29.8779 18.8384 29.7993 18.9062 29.7007 18.9561C29.6021 19.0049 29.4917 19.0293 29.3696 19.0293C29.2466 19.0293 29.1392 19.0088 29.0474 18.9678C28.9565 18.9268 28.8809 18.8701 28.8203 18.7979C28.7598 18.7246 28.7144 18.6396 28.6841 18.543C28.6538 18.4453 28.6387 18.3408 28.6387 18.2295V18.187C28.6387 18.0747 28.6538 17.9702 28.6841 17.8735C28.7144 17.7759 28.7598 17.6909 28.8203 17.6187C28.8809 17.5454 28.9565 17.4883 29.0474 17.4473C29.1382 17.4062 29.2446 17.3857 29.3667 17.3857C29.4966 17.3857 29.6104 17.4106 29.708 17.4604C29.8066 17.5103 29.8838 17.5815 29.9395 17.6743C29.9961 17.7661 30.0249 17.875 30.0259 18.001H29.6289C29.6279 17.9482 29.6167 17.9004 29.5952 17.8574C29.5747 17.8145 29.5444 17.7803 29.5044 17.7549C29.4653 17.7285 29.417 17.7153 29.3594 17.7153C29.2979 17.7153 29.2476 17.7285 29.2085 17.7549C29.1694 17.7803 29.1392 17.8154 29.1177 17.8604C29.0962 17.9043 29.0811 17.9546 29.0723 18.0112C29.0645 18.0669 29.0605 18.1255 29.0605 18.187V18.2295C29.0605 18.291 29.0645 18.3501 29.0723 18.4067C29.0801 18.4634 29.0947 18.5137 29.1162 18.5576C29.1387 18.6016 29.1694 18.6362 29.2085 18.6616C29.2476 18.687 29.2983 18.6997 29.3608 18.6997ZM30.7158 17.415V19H30.2925V17.415H30.7158ZM30.2661 17.002C30.2661 16.9404 30.2876 16.8896 30.3306 16.8496C30.3735 16.8096 30.4312 16.7896 30.5034 16.7896C30.5747 16.7896 30.6318 16.8096 30.6748 16.8496C30.7188 16.8896 30.7407 16.9404 30.7407 17.002C30.7407 17.0635 30.7188 17.1143 30.6748 17.1543C30.6318 17.1943 30.5747 17.2144 30.5034 17.2144C30.4312 17.2144 30.3735 17.1943 30.3306 17.1543C30.2876 17.1143 30.2661 17.0635 30.2661 17.002ZM31.7192 18.6997C31.771 18.6997 31.8169 18.6899 31.8569 18.6704C31.897 18.6499 31.9282 18.6216 31.9507 18.5854C31.9741 18.5483 31.9863 18.5049 31.9873 18.4551H32.3843C32.3833 18.5664 32.3535 18.6655 32.2949 18.7524C32.2363 18.8384 32.1577 18.9062 32.0591 18.9561C31.9604 19.0049 31.8501 19.0293 31.728 19.0293C31.605 19.0293 31.4976 19.0088 31.4058 18.9678C31.3149 18.9268 31.2393 18.8701 31.1787 18.7979C31.1182 18.7246 31.0728 18.6396 31.0425 18.543C31.0122 18.4453 30.9971 18.3408 30.9971 18.2295V18.187C30.9971 18.0747 31.0122 17.9702 31.0425 17.8735C31.0728 17.7759 31.1182 17.6909 31.1787 17.6187C31.2393 17.5454 31.3149 17.4883 31.4058 17.4473C31.4966 17.4062 31.603 17.3857 31.7251 17.3857C31.855 17.3857 31.9688 17.4106 32.0664 17.4604C32.165 17.5103 32.2422 17.5815 32.2979 17.6743C32.3545 17.7661 32.3833 17.875 32.3843 18.001H31.9873C31.9863 17.9482 31.9751 17.9004 31.9536 17.8574C31.9331 17.8145 31.9028 17.7803 31.8628 17.7549C31.8237 17.7285 31.7754 17.7153 31.7178 17.7153C31.6562 17.7153 31.606 17.7285 31.5669 17.7549C31.5278 17.7803 31.4976 17.8154 31.4761 17.8604C31.4546 17.9043 31.4395 17.9546 31.4307 18.0112C31.4229 18.0669 31.4189 18.1255 31.4189 18.187V18.2295C31.4189 18.291 31.4229 18.3501 31.4307 18.4067C31.4385 18.4634 31.4531 18.5137 31.4746 18.5576C31.4971 18.6016 31.5278 18.6362 31.5669 18.6616C31.606 18.687 31.6567 18.6997 31.7192 18.6997ZM33.0742 16.75V19H32.6509V16.75H33.0742ZM34.2783 18.6426V17.9365C34.2783 17.8857 34.27 17.8423 34.2534 17.8062C34.2368 17.769 34.2109 17.7402 34.1758 17.7197C34.1416 17.6992 34.0972 17.689 34.0425 17.689C33.9956 17.689 33.9551 17.6973 33.9209 17.7139C33.8867 17.7295 33.8604 17.7524 33.8418 17.7827C33.8232 17.812 33.814 17.8467 33.814 17.8867H33.3921C33.3921 17.8193 33.4077 17.7554 33.439 17.6948C33.4702 17.6343 33.5156 17.5811 33.5752 17.5352C33.6348 17.4883 33.7056 17.4517 33.7876 17.4253C33.8706 17.3989 33.9634 17.3857 34.0659 17.3857C34.189 17.3857 34.2983 17.4062 34.394 17.4473C34.4897 17.4883 34.5649 17.5498 34.6196 17.6318C34.6753 17.7139 34.7031 17.8164 34.7031 17.9395V18.6177C34.7031 18.7046 34.7085 18.7759 34.7192 18.8315C34.73 18.8862 34.7456 18.9341 34.7661 18.9751V19H34.3398C34.3193 18.957 34.3037 18.9033 34.293 18.8389C34.2832 18.7734 34.2783 18.708 34.2783 18.6426ZM34.334 18.0347L34.3369 18.2734H34.1011C34.0454 18.2734 33.9971 18.2798 33.9561 18.2925C33.915 18.3052 33.8813 18.3232 33.855 18.3467C33.8286 18.3691 33.8091 18.3955 33.7964 18.4258C33.7847 18.4561 33.7788 18.4893 33.7788 18.5254C33.7788 18.5615 33.7871 18.5942 33.8037 18.6235C33.8203 18.6519 33.8442 18.6743 33.8755 18.6909C33.9067 18.7065 33.9434 18.7144 33.9854 18.7144C34.0488 18.7144 34.104 18.7017 34.1509 18.6763C34.1978 18.6509 34.2339 18.6196 34.2593 18.5825C34.2856 18.5454 34.2993 18.5103 34.3003 18.4771L34.4116 18.6558C34.396 18.6958 34.3745 18.7373 34.3472 18.7803C34.3208 18.8232 34.2871 18.8638 34.2461 18.9019C34.2051 18.939 34.1558 18.9697 34.0981 18.9941C34.0405 19.0176 33.9722 19.0293 33.8931 19.0293C33.7925 19.0293 33.7012 19.0093 33.6191 18.9692C33.5381 18.9282 33.4736 18.8721 33.4258 18.8008C33.3789 18.7285 33.3555 18.6465 33.3555 18.5547C33.3555 18.4717 33.3711 18.3979 33.4023 18.3335C33.4336 18.269 33.4795 18.2148 33.54 18.1709C33.6016 18.126 33.6782 18.0923 33.77 18.0698C33.8618 18.0464 33.9683 18.0347 34.0894 18.0347H34.334ZM36.0317 17.415H36.4141V18.9473C36.4141 19.0918 36.3818 19.2144 36.3174 19.3149C36.2539 19.4165 36.165 19.4932 36.0508 19.5449C35.9365 19.5977 35.8037 19.624 35.6523 19.624C35.5859 19.624 35.5156 19.6152 35.4414 19.5977C35.3682 19.5801 35.2979 19.5527 35.2305 19.5156C35.1641 19.4785 35.1084 19.4316 35.0635 19.375L35.2495 19.126C35.2983 19.1826 35.355 19.2266 35.4194 19.2578C35.4839 19.29 35.5552 19.3062 35.6333 19.3062C35.7095 19.3062 35.7739 19.292 35.8267 19.2637C35.8794 19.2363 35.9199 19.1958 35.9482 19.1421C35.9766 19.0894 35.9907 19.0254 35.9907 18.9502V17.7812L36.0317 17.415ZM34.9653 18.2266V18.1958C34.9653 18.0747 34.98 17.9648 35.0093 17.8662C35.0396 17.7666 35.082 17.6812 35.1367 17.6099C35.1924 17.5386 35.2598 17.4834 35.3389 17.4443C35.418 17.4053 35.5073 17.3857 35.6069 17.3857C35.7124 17.3857 35.8008 17.4053 35.8721 17.4443C35.9434 17.4834 36.002 17.5391 36.0479 17.6113C36.0938 17.6826 36.1294 17.7671 36.1548 17.8647C36.1812 17.9614 36.2017 18.0674 36.2163 18.1826V18.25C36.2017 18.3604 36.1797 18.4629 36.1504 18.5576C36.1211 18.6523 36.0825 18.7354 36.0347 18.8066C35.9868 18.877 35.9272 18.9316 35.856 18.9707C35.7856 19.0098 35.7017 19.0293 35.604 19.0293C35.5063 19.0293 35.418 19.0093 35.3389 18.9692C35.2607 18.9292 35.1938 18.873 35.1382 18.8008C35.0825 18.7285 35.0396 18.6436 35.0093 18.5459C34.98 18.4482 34.9653 18.3418 34.9653 18.2266ZM35.3872 18.1958V18.2266C35.3872 18.292 35.3936 18.353 35.4062 18.4097C35.4189 18.4663 35.4385 18.5166 35.4648 18.5605C35.4922 18.6035 35.5259 18.6372 35.5659 18.6616C35.6069 18.6851 35.6553 18.6968 35.7109 18.6968C35.7881 18.6968 35.8511 18.6807 35.8999 18.6484C35.9487 18.6152 35.9854 18.5698 36.0098 18.5122C36.0342 18.4546 36.0483 18.3882 36.0522 18.313V18.1211C36.0503 18.0596 36.042 18.0044 36.0273 17.9556C36.0127 17.9058 35.9922 17.8633 35.9658 17.8281C35.9395 17.793 35.9053 17.7656 35.8633 17.7461C35.8213 17.7266 35.7715 17.7168 35.7139 17.7168C35.6582 17.7168 35.6099 17.7295 35.5688 17.7549C35.5288 17.7793 35.4951 17.813 35.4678 17.856C35.4414 17.8989 35.4214 17.9497 35.4077 18.0083C35.394 18.0659 35.3872 18.1284 35.3872 18.1958ZM37.4717 19.0293C37.3486 19.0293 37.2383 19.0098 37.1406 18.9707C37.043 18.9307 36.96 18.8755 36.8916 18.8052C36.8242 18.7349 36.7725 18.6533 36.7363 18.5605C36.7002 18.4668 36.6821 18.3672 36.6821 18.2617V18.2031C36.6821 18.083 36.6992 17.9731 36.7334 17.8735C36.7676 17.7739 36.8164 17.6875 36.8799 17.6143C36.9443 17.541 37.0225 17.4849 37.1143 17.4458C37.2061 17.4058 37.3096 17.3857 37.4248 17.3857C37.5371 17.3857 37.6367 17.4043 37.7236 17.4414C37.8105 17.4785 37.8833 17.5312 37.9419 17.5996C38.0015 17.668 38.0464 17.75 38.0767 17.8457C38.1069 17.9404 38.1221 18.0459 38.1221 18.1621V18.3379H36.8623V18.0566H37.7075V18.0244C37.7075 17.9658 37.6968 17.9136 37.6753 17.8677C37.6548 17.8208 37.6235 17.7837 37.5815 17.7563C37.5396 17.729 37.4858 17.7153 37.4204 17.7153C37.3647 17.7153 37.3169 17.7275 37.2769 17.752C37.2368 17.7764 37.2041 17.8105 37.1787 17.8545C37.1543 17.8984 37.1357 17.9502 37.123 18.0098C37.1113 18.0684 37.1055 18.1328 37.1055 18.2031V18.2617C37.1055 18.3252 37.1143 18.3838 37.1318 18.4375C37.1504 18.4912 37.1763 18.5376 37.2095 18.5767C37.2437 18.6157 37.2847 18.646 37.3325 18.6675C37.3813 18.689 37.4365 18.6997 37.498 18.6997C37.5742 18.6997 37.645 18.6851 37.7104 18.6558C37.7769 18.6255 37.834 18.5801 37.8818 18.5195L38.0869 18.7422C38.0537 18.79 38.0083 18.8359 37.9507 18.8799C37.894 18.9238 37.8257 18.96 37.7456 18.9883C37.6655 19.0156 37.5742 19.0293 37.4717 19.0293ZM38.7842 17.7432V19H38.3608V17.415H38.7578L38.7842 17.7432ZM38.7256 18.1519H38.6084C38.6084 18.0415 38.6216 17.9399 38.6479 17.8472C38.6753 17.7534 38.7148 17.6724 38.7666 17.604C38.8193 17.5347 38.8843 17.481 38.9614 17.4429C39.0386 17.4048 39.1279 17.3857 39.2295 17.3857C39.2998 17.3857 39.3643 17.3965 39.4229 17.418C39.4814 17.4385 39.5317 17.4712 39.5737 17.5161C39.6167 17.5601 39.6499 17.6177 39.6733 17.689C39.6968 17.7593 39.7085 17.8438 39.7085 17.9424V19H39.2866V17.9893C39.2866 17.917 39.2769 17.8613 39.2573 17.8223C39.2378 17.7832 39.21 17.7559 39.1738 17.7402C39.1387 17.7246 39.0962 17.7168 39.0464 17.7168C38.9917 17.7168 38.9438 17.728 38.9028 17.7505C38.8628 17.7729 38.8296 17.8042 38.8032 17.8442C38.7769 17.8833 38.7573 17.9292 38.7446 17.9819C38.7319 18.0347 38.7256 18.0913 38.7256 18.1519ZM39.6689 18.1035L39.5181 18.1226C39.5181 18.019 39.5308 17.9229 39.5562 17.834C39.5825 17.7451 39.6211 17.667 39.6719 17.5996C39.7236 17.5322 39.7876 17.48 39.8638 17.4429C39.9399 17.4048 40.0278 17.3857 40.1274 17.3857C40.2036 17.3857 40.2729 17.397 40.3354 17.4194C40.3979 17.4409 40.4512 17.4756 40.4951 17.5234C40.54 17.5703 40.5742 17.6318 40.5977 17.708C40.6221 17.7842 40.6343 17.8774 40.6343 17.9878V19H40.2109V17.9878C40.2109 17.9146 40.2012 17.8589 40.1816 17.8208C40.1631 17.7817 40.1357 17.7549 40.0996 17.7402C40.0645 17.7246 40.0225 17.7168 39.9736 17.7168C39.9229 17.7168 39.8784 17.7271 39.8403 17.7476C39.8022 17.7671 39.7705 17.7944 39.7451 17.8296C39.7197 17.8647 39.7007 17.9058 39.688 17.9526C39.6753 17.9985 39.6689 18.0488 39.6689 18.1035ZM42.644 19.6094V17.7388L42.6982 17.415H43.0688V19.6094H42.644ZM41.6421 18.2236V18.1929C41.6421 18.0718 41.6553 17.9619 41.6816 17.8633C41.709 17.7637 41.749 17.6787 41.8018 17.6084C41.8545 17.5371 41.9189 17.4824 41.9951 17.4443C42.0723 17.4053 42.1611 17.3857 42.2617 17.3857C42.3584 17.3857 42.4419 17.4053 42.5122 17.4443C42.5825 17.4834 42.6416 17.5386 42.6895 17.6099C42.7383 17.6812 42.7773 17.7651 42.8066 17.8618C42.8359 17.9585 42.8584 18.0645 42.874 18.1797V18.2471C42.8594 18.3574 42.8369 18.46 42.8066 18.5547C42.7773 18.6494 42.7383 18.7324 42.6895 18.8037C42.6416 18.875 42.582 18.9307 42.5107 18.9707C42.4404 19.0098 42.3564 19.0293 42.2588 19.0293C42.1602 19.0293 42.0723 19.0093 41.9951 18.9692C41.9189 18.9282 41.8545 18.8716 41.8018 18.7993C41.749 18.7271 41.709 18.6421 41.6816 18.5444C41.6553 18.4458 41.6421 18.3389 41.6421 18.2236ZM42.064 18.1929V18.2236C42.064 18.2891 42.0693 18.3506 42.0801 18.4082C42.0908 18.4648 42.1079 18.5151 42.1313 18.5591C42.1558 18.603 42.187 18.6377 42.2251 18.6631C42.2632 18.6875 42.3101 18.6997 42.3657 18.6997C42.4429 18.6997 42.5049 18.6831 42.5518 18.6499C42.5996 18.6157 42.6348 18.5693 42.6572 18.5107C42.6807 18.4521 42.6943 18.3853 42.6982 18.3101V18.1182C42.6953 18.0566 42.687 18.0015 42.6733 17.9526C42.6606 17.9028 42.6411 17.8604 42.6147 17.8252C42.5894 17.79 42.5562 17.7632 42.5151 17.7446C42.4751 17.7251 42.4263 17.7153 42.3687 17.7153C42.314 17.7153 42.2671 17.7275 42.228 17.752C42.189 17.7764 42.1572 17.8105 42.1328 17.8545C42.1094 17.8975 42.0918 17.9478 42.0801 18.0054C42.0693 18.063 42.064 18.1255 42.064 18.1929ZM44.3389 18.6206V17.415H44.7607V19H44.3638L44.3389 18.6206ZM44.3857 18.2954L44.5103 18.2925C44.5103 18.3979 44.498 18.4961 44.4736 18.5869C44.4492 18.6768 44.4126 18.7549 44.3638 18.8213C44.3149 18.8867 44.2534 18.938 44.1792 18.9751C44.105 19.0112 44.0176 19.0293 43.917 19.0293C43.8398 19.0293 43.7686 19.0186 43.7031 18.9971C43.6387 18.9746 43.583 18.9399 43.5361 18.8931C43.4902 18.8452 43.4541 18.7842 43.4277 18.71C43.4023 18.6348 43.3896 18.5444 43.3896 18.439V17.415H43.8115V18.4419C43.8115 18.4888 43.8169 18.5283 43.8276 18.5605C43.8394 18.5928 43.8555 18.6191 43.876 18.6396C43.8965 18.6602 43.9204 18.6748 43.9478 18.6836C43.9761 18.6924 44.0073 18.6968 44.0415 18.6968C44.1284 18.6968 44.1968 18.6792 44.2466 18.644C44.2974 18.6089 44.333 18.561 44.3535 18.5005C44.375 18.439 44.3857 18.3706 44.3857 18.2954ZM45.8125 19.0293C45.6895 19.0293 45.5791 19.0098 45.4814 18.9707C45.3838 18.9307 45.3008 18.8755 45.2324 18.8052C45.165 18.7349 45.1133 18.6533 45.0771 18.5605C45.041 18.4668 45.0229 18.3672 45.0229 18.2617V18.2031C45.0229 18.083 45.04 17.9731 45.0742 17.8735C45.1084 17.7739 45.1572 17.6875 45.2207 17.6143C45.2852 17.541 45.3633 17.4849 45.4551 17.4458C45.5469 17.4058 45.6504 17.3857 45.7656 17.3857C45.8779 17.3857 45.9775 17.4043 46.0645 17.4414C46.1514 17.4785 46.2241 17.5312 46.2827 17.5996C46.3423 17.668 46.3872 17.75 46.4175 17.8457C46.4478 17.9404 46.4629 18.0459 46.4629 18.1621V18.3379H45.2031V18.0566H46.0483V18.0244C46.0483 17.9658 46.0376 17.9136 46.0161 17.8677C45.9956 17.8208 45.9644 17.7837 45.9224 17.7563C45.8804 17.729 45.8267 17.7153 45.7612 17.7153C45.7056 17.7153 45.6577 17.7275 45.6177 17.752C45.5776 17.7764 45.5449 17.8105 45.5195 17.8545C45.4951 17.8984 45.4766 17.9502 45.4639 18.0098C45.4521 18.0684 45.4463 18.1328 45.4463 18.2031V18.2617C45.4463 18.3252 45.4551 18.3838 45.4727 18.4375C45.4912 18.4912 45.5171 18.5376 45.5503 18.5767C45.5845 18.6157 45.6255 18.646 45.6733 18.6675C45.7222 18.689 45.7773 18.6997 45.8389 18.6997C45.915 18.6997 45.9858 18.6851 46.0513 18.6558C46.1177 18.6255 46.1748 18.5801 46.2227 18.5195L46.4277 18.7422C46.3945 18.79 46.3491 18.8359 46.2915 18.8799C46.2349 18.9238 46.1665 18.96 46.0864 18.9883C46.0063 19.0156 45.915 19.0293 45.8125 19.0293ZM47.8721 17.7607V19H47.4502V17.415H47.8472L47.8721 17.7607ZM48.3496 17.4048L48.3423 17.7959C48.3218 17.793 48.2969 17.7905 48.2676 17.7886C48.2393 17.7856 48.2134 17.7842 48.1899 17.7842C48.1304 17.7842 48.0786 17.792 48.0347 17.8076C47.9917 17.8223 47.9556 17.8442 47.9263 17.8735C47.8979 17.9028 47.8765 17.9385 47.8618 17.9805C47.8481 18.0225 47.8403 18.0703 47.8384 18.124L47.7534 18.0977C47.7534 17.9951 47.7637 17.9009 47.7842 17.8149C47.8047 17.728 47.8345 17.6523 47.8735 17.5879C47.9136 17.5234 47.9624 17.4736 48.02 17.4385C48.0776 17.4033 48.1436 17.3857 48.2178 17.3857C48.2412 17.3857 48.2651 17.3877 48.2896 17.3916C48.314 17.3945 48.334 17.3989 48.3496 17.4048ZM49.249 19.0293C49.126 19.0293 49.0156 19.0098 48.918 18.9707C48.8203 18.9307 48.7373 18.8755 48.6689 18.8052C48.6016 18.7349 48.5498 18.6533 48.5137 18.5605C48.4775 18.4668 48.4595 18.3672 48.4595 18.2617V18.2031C48.4595 18.083 48.4766 17.9731 48.5107 17.8735C48.5449 17.7739 48.5938 17.6875 48.6572 17.6143C48.7217 17.541 48.7998 17.4849 48.8916 17.4458C48.9834 17.4058 49.0869 17.3857 49.2021 17.3857C49.3145 17.3857 49.4141 17.4043 49.501 17.4414C49.5879 17.4785 49.6606 17.5312 49.7192 17.5996C49.7788 17.668 49.8237 17.75 49.854 17.8457C49.8843 17.9404 49.8994 18.0459 49.8994 18.1621V18.3379H48.6396V18.0566H49.4849V18.0244C49.4849 17.9658 49.4741 17.9136 49.4526 17.8677C49.4321 17.8208 49.4009 17.7837 49.3589 17.7563C49.3169 17.729 49.2632 17.7153 49.1978 17.7153C49.1421 17.7153 49.0942 17.7275 49.0542 17.752C49.0142 17.7764 48.9814 17.8105 48.9561 17.8545C48.9316 17.8984 48.9131 17.9502 48.9004 18.0098C48.8887 18.0684 48.8828 18.1328 48.8828 18.2031V18.2617C48.8828 18.3252 48.8916 18.3838 48.9092 18.4375C48.9277 18.4912 48.9536 18.5376 48.9868 18.5767C49.021 18.6157 49.062 18.646 49.1099 18.6675C49.1587 18.689 49.2139 18.6997 49.2754 18.6997C49.3516 18.6997 49.4224 18.6851 49.4878 18.6558C49.5542 18.6255 49.6113 18.5801 49.6592 18.5195L49.8643 18.7422C49.8311 18.79 49.7856 18.8359 49.728 18.8799C49.6714 18.9238 49.603 18.96 49.5229 18.9883C49.4429 19.0156 49.3516 19.0293 49.249 19.0293ZM50.7944 18.6997C50.8462 18.6997 50.8921 18.6899 50.9321 18.6704C50.9722 18.6499 51.0034 18.6216 51.0259 18.5854C51.0493 18.5483 51.0615 18.5049 51.0625 18.4551H51.4595C51.4585 18.5664 51.4287 18.6655 51.3701 18.7524C51.3115 18.8384 51.2329 18.9062 51.1343 18.9561C51.0356 19.0049 50.9253 19.0293 50.8032 19.0293C50.6802 19.0293 50.5728 19.0088 50.481 18.9678C50.3901 18.9268 50.3145 18.8701 50.2539 18.7979C50.1934 18.7246 50.1479 18.6396 50.1177 18.543C50.0874 18.4453 50.0723 18.3408 50.0723 18.2295V18.187C50.0723 18.0747 50.0874 17.9702 50.1177 17.8735C50.1479 17.7759 50.1934 17.6909 50.2539 17.6187C50.3145 17.5454 50.3901 17.4883 50.481 17.4473C50.5718 17.4062 50.6782 17.3857 50.8003 17.3857C50.9302 17.3857 51.0439 17.4106 51.1416 17.4604C51.2402 17.5103 51.3174 17.5815 51.373 17.6743C51.4297 17.7661 51.4585 17.875 51.4595 18.001H51.0625C51.0615 17.9482 51.0503 17.9004 51.0288 17.8574C51.0083 17.8145 50.978 17.7803 50.938 17.7549C50.8989 17.7285 50.8506 17.7153 50.793 17.7153C50.7314 17.7153 50.6812 17.7285 50.6421 17.7549C50.603 17.7803 50.5728 17.8154 50.5513 17.8604C50.5298 17.9043 50.5146 17.9546 50.5059 18.0112C50.498 18.0669 50.4941 18.1255 50.4941 18.187V18.2295C50.4941 18.291 50.498 18.3501 50.5059 18.4067C50.5137 18.4634 50.5283 18.5137 50.5498 18.5576C50.5723 18.6016 50.603 18.6362 50.6421 18.6616C50.6812 18.687 50.7319 18.6997 50.7944 18.6997ZM51.6367 18.2236V18.1929C51.6367 18.0767 51.6533 17.9697 51.6865 17.8721C51.7197 17.7734 51.7681 17.688 51.8315 17.6157C51.895 17.5435 51.9731 17.4873 52.0659 17.4473C52.1587 17.4062 52.2651 17.3857 52.3853 17.3857C52.5054 17.3857 52.6123 17.4062 52.7061 17.4473C52.7998 17.4873 52.8784 17.5435 52.9419 17.6157C53.0063 17.688 53.0552 17.7734 53.0884 17.8721C53.1216 17.9697 53.1382 18.0767 53.1382 18.1929V18.2236C53.1382 18.3389 53.1216 18.4458 53.0884 18.5444C53.0552 18.6421 53.0063 18.7275 52.9419 18.8008C52.8784 18.873 52.8003 18.9292 52.7075 18.9692C52.6147 19.0093 52.5083 19.0293 52.3882 19.0293C52.2681 19.0293 52.1611 19.0093 52.0674 18.9692C51.9746 18.9292 51.896 18.873 51.8315 18.8008C51.7681 18.7275 51.7197 18.6421 51.6865 18.5444C51.6533 18.4458 51.6367 18.3389 51.6367 18.2236ZM52.0586 18.1929V18.2236C52.0586 18.29 52.0645 18.3521 52.0762 18.4097C52.0879 18.4673 52.1064 18.5181 52.1318 18.562C52.1582 18.605 52.1924 18.6387 52.2344 18.6631C52.2764 18.6875 52.3276 18.6997 52.3882 18.6997C52.4468 18.6997 52.4971 18.6875 52.5391 18.6631C52.5811 18.6387 52.6147 18.605 52.6401 18.562C52.6655 18.5181 52.6841 18.4673 52.6958 18.4097C52.7085 18.3521 52.7148 18.29 52.7148 18.2236V18.1929C52.7148 18.1284 52.7085 18.0679 52.6958 18.0112C52.6841 17.9536 52.665 17.9028 52.6387 17.8589C52.6133 17.814 52.5796 17.7788 52.5376 17.7534C52.4956 17.728 52.4448 17.7153 52.3853 17.7153C52.3257 17.7153 52.2749 17.728 52.2329 17.7534C52.1919 17.7788 52.1582 17.814 52.1318 17.8589C52.1064 17.9028 52.0879 17.9536 52.0762 18.0112C52.0645 18.0679 52.0586 18.1284 52.0586 18.1929ZM53.8193 17.7432V19H53.396V17.415H53.793L53.8193 17.7432ZM53.7607 18.1519H53.6436C53.6436 18.0415 53.6567 17.9399 53.6831 17.8472C53.7104 17.7534 53.75 17.6724 53.8018 17.604C53.8545 17.5347 53.9194 17.481 53.9966 17.4429C54.0737 17.4048 54.1631 17.3857 54.2646 17.3857C54.335 17.3857 54.3994 17.3965 54.458 17.418C54.5166 17.4385 54.5669 17.4712 54.6089 17.5161C54.6519 17.5601 54.6851 17.6177 54.7085 17.689C54.7319 17.7593 54.7437 17.8438 54.7437 17.9424V19H54.3218V17.9893C54.3218 17.917 54.312 17.8613 54.2925 17.8223C54.2729 17.7832 54.2451 17.7559 54.209 17.7402C54.1738 17.7246 54.1313 17.7168 54.0815 17.7168C54.0269 17.7168 53.979 17.728 53.938 17.7505C53.8979 17.7729 53.8647 17.8042 53.8384 17.8442C53.812 17.8833 53.7925 17.9292 53.7798 17.9819C53.7671 18.0347 53.7607 18.0913 53.7607 18.1519ZM54.7041 18.1035L54.5532 18.1226C54.5532 18.019 54.5659 17.9229 54.5913 17.834C54.6177 17.7451 54.6562 17.667 54.707 17.5996C54.7588 17.5322 54.8228 17.48 54.8989 17.4429C54.9751 17.4048 55.063 17.3857 55.1626 17.3857C55.2388 17.3857 55.3081 17.397 55.3706 17.4194C55.4331 17.4409 55.4863 17.4756 55.5303 17.5234C55.5752 17.5703 55.6094 17.6318 55.6328 17.708C55.6572 17.7842 55.6694 17.8774 55.6694 17.9878V19H55.2461V17.9878C55.2461 17.9146 55.2363 17.8589 55.2168 17.8208C55.1982 17.7817 55.1709 17.7549 55.1348 17.7402C55.0996 17.7246 55.0576 17.7168 55.0088 17.7168C54.958 17.7168 54.9136 17.7271 54.8755 17.7476C54.8374 17.7671 54.8057 17.7944 54.7803 17.8296C54.7549 17.8647 54.7358 17.9058 54.7231 17.9526C54.7104 17.9985 54.7041 18.0488 54.7041 18.1035ZM56.418 17.7197V19.6094H55.9961V17.415H56.3872L56.418 17.7197ZM57.4214 18.1899V18.2207C57.4214 18.3359 57.4077 18.4429 57.3804 18.5415C57.354 18.6401 57.3149 18.7261 57.2632 18.7993C57.2114 18.8716 57.147 18.9282 57.0698 18.9692C56.9937 19.0093 56.9058 19.0293 56.8062 19.0293C56.7095 19.0293 56.6255 19.0098 56.5542 18.9707C56.4829 18.9316 56.4229 18.877 56.374 18.8066C56.3262 18.7354 56.2876 18.6528 56.2583 18.5591C56.229 18.4653 56.2065 18.3647 56.1909 18.2573V18.1768C56.2065 18.0615 56.229 17.9561 56.2583 17.8604C56.2876 17.7637 56.3262 17.6802 56.374 17.6099C56.4229 17.5386 56.4824 17.4834 56.5527 17.4443C56.624 17.4053 56.7075 17.3857 56.8032 17.3857C56.9038 17.3857 56.9922 17.4048 57.0684 17.4429C57.1455 17.481 57.21 17.5356 57.2617 17.6069C57.3145 17.6782 57.354 17.7632 57.3804 17.8618C57.4077 17.9604 57.4214 18.0698 57.4214 18.1899ZM56.998 18.2207V18.1899C56.998 18.1226 56.9922 18.0605 56.9805 18.0039C56.9697 17.9463 56.9521 17.896 56.9277 17.853C56.9043 17.8101 56.873 17.7769 56.834 17.7534C56.7959 17.729 56.7495 17.7168 56.6948 17.7168C56.6372 17.7168 56.5879 17.7261 56.5469 17.7446C56.5068 17.7632 56.4741 17.79 56.4487 17.8252C56.4233 17.8604 56.4043 17.9023 56.3916 17.9512C56.3789 18 56.3711 18.0552 56.3682 18.1167V18.3203C56.373 18.3926 56.3867 18.4575 56.4092 18.5151C56.4316 18.5718 56.4663 18.6167 56.5132 18.6499C56.5601 18.6831 56.6216 18.6997 56.6978 18.6997C56.7534 18.6997 56.8003 18.6875 56.8384 18.6631C56.8765 18.6377 56.9072 18.603 56.9307 18.5591C56.9551 18.5151 56.9722 18.4644 56.9819 18.4067C56.9927 18.3491 56.998 18.2871 56.998 18.2207ZM58.4131 19.0293C58.29 19.0293 58.1797 19.0098 58.082 18.9707C57.9844 18.9307 57.9014 18.8755 57.833 18.8052C57.7656 18.7349 57.7139 18.6533 57.6777 18.5605C57.6416 18.4668 57.6235 18.3672 57.6235 18.2617V18.2031C57.6235 18.083 57.6406 17.9731 57.6748 17.8735C57.709 17.7739 57.7578 17.6875 57.8213 17.6143C57.8857 17.541 57.9639 17.4849 58.0557 17.4458C58.1475 17.4058 58.251 17.3857 58.3662 17.3857C58.4785 17.3857 58.5781 17.4043 58.665 17.4414C58.752 17.4785 58.8247 17.5312 58.8833 17.5996C58.9429 17.668 58.9878 17.75 59.0181 17.8457C59.0483 17.9404 59.0635 18.0459 59.0635 18.1621V18.3379H57.8037V18.0566H58.6489V18.0244C58.6489 17.9658 58.6382 17.9136 58.6167 17.8677C58.5962 17.8208 58.5649 17.7837 58.5229 17.7563C58.481 17.729 58.4272 17.7153 58.3618 17.7153C58.3062 17.7153 58.2583 17.7275 58.2183 17.752C58.1782 17.7764 58.1455 17.8105 58.1201 17.8545C58.0957 17.8984 58.0771 17.9502 58.0645 18.0098C58.0527 18.0684 58.0469 18.1328 58.0469 18.2031V18.2617C58.0469 18.3252 58.0557 18.3838 58.0732 18.4375C58.0918 18.4912 58.1177 18.5376 58.1509 18.5767C58.1851 18.6157 58.2261 18.646 58.2739 18.6675C58.3228 18.689 58.3779 18.6997 58.4395 18.6997C58.5156 18.6997 58.5864 18.6851 58.6519 18.6558C58.7183 18.6255 58.7754 18.5801 58.8232 18.5195L59.0283 18.7422C58.9951 18.79 58.9497 18.8359 58.8921 18.8799C58.8354 18.9238 58.7671 18.96 58.687 18.9883C58.6069 19.0156 58.5156 19.0293 58.4131 19.0293ZM59.7168 17.7534V19H59.2949V17.415H59.6904L59.7168 17.7534ZM59.6553 18.1519H59.541C59.541 18.0347 59.5562 17.9292 59.5864 17.8354C59.6167 17.7407 59.6592 17.6602 59.7139 17.5938C59.7686 17.5264 59.8335 17.4751 59.9087 17.4399C59.9849 17.4038 60.0698 17.3857 60.1636 17.3857C60.2378 17.3857 60.3057 17.3965 60.3672 17.418C60.4287 17.4395 60.4814 17.4736 60.5254 17.5205C60.5703 17.5674 60.6045 17.6294 60.6279 17.7065C60.6523 17.7837 60.6646 17.8779 60.6646 17.9893V19H60.2397V17.9878C60.2397 17.9175 60.23 17.8628 60.2104 17.8237C60.1909 17.7847 60.1621 17.7573 60.124 17.7417C60.0869 17.7251 60.041 17.7168 59.9863 17.7168C59.9297 17.7168 59.8804 17.728 59.8384 17.7505C59.7974 17.7729 59.7632 17.8042 59.7358 17.8442C59.7095 17.8833 59.6895 17.9292 59.6758 17.9819C59.6621 18.0347 59.6553 18.0913 59.6553 18.1519ZM61.8423 18.562C61.8423 18.5317 61.8335 18.5044 61.8159 18.48C61.7983 18.4556 61.7656 18.4331 61.7178 18.4126C61.6709 18.3911 61.603 18.3716 61.5142 18.354C61.4341 18.3364 61.3594 18.3145 61.29 18.2881C61.2217 18.2607 61.1621 18.228 61.1113 18.1899C61.0615 18.1519 61.0225 18.1069 60.9941 18.0552C60.9658 18.0024 60.9517 17.9424 60.9517 17.875C60.9517 17.8086 60.9658 17.7461 60.9941 17.6875C61.0234 17.6289 61.0649 17.5771 61.1187 17.5322C61.1733 17.4863 61.2397 17.4507 61.3179 17.4253C61.397 17.3989 61.4858 17.3857 61.5845 17.3857C61.7222 17.3857 61.8403 17.4077 61.939 17.4517C62.0386 17.4956 62.1147 17.5562 62.1675 17.6333C62.2212 17.7095 62.248 17.7964 62.248 17.894H61.8262C61.8262 17.853 61.8174 17.8164 61.7998 17.7842C61.7832 17.751 61.7568 17.7251 61.7207 17.7065C61.6855 17.687 61.6396 17.6772 61.583 17.6772C61.5361 17.6772 61.4956 17.6855 61.4614 17.7021C61.4272 17.7178 61.4009 17.7393 61.3823 17.7666C61.3647 17.793 61.356 17.8223 61.356 17.8545C61.356 17.8789 61.3608 17.9009 61.3706 17.9204C61.3813 17.939 61.3984 17.9561 61.4219 17.9717C61.4453 17.9873 61.4756 18.002 61.5127 18.0156C61.5508 18.0283 61.5977 18.04 61.6533 18.0508C61.7676 18.0742 61.8696 18.105 61.9595 18.1431C62.0493 18.1802 62.1206 18.231 62.1733 18.2954C62.2261 18.3589 62.2524 18.4424 62.2524 18.5459C62.2524 18.6162 62.2368 18.6807 62.2056 18.7393C62.1743 18.7979 62.1294 18.8491 62.0708 18.8931C62.0122 18.936 61.9419 18.9697 61.8599 18.9941C61.7788 19.0176 61.6875 19.0293 61.5859 19.0293C61.4385 19.0293 61.3135 19.0029 61.2109 18.9502C61.1094 18.8975 61.0322 18.8306 60.9795 18.7495C60.9277 18.6675 60.9019 18.5835 60.9019 18.4976H61.3018C61.3037 18.5552 61.3184 18.6016 61.3457 18.6367C61.374 18.6719 61.4097 18.6973 61.4526 18.7129C61.4966 18.7285 61.5439 18.7363 61.5947 18.7363C61.6494 18.7363 61.6948 18.729 61.731 18.7144C61.7671 18.6987 61.7944 18.6782 61.813 18.6528C61.8325 18.6265 61.8423 18.5962 61.8423 18.562ZM63.3818 18.6426V17.9365C63.3818 17.8857 63.3735 17.8423 63.3569 17.8062C63.3403 17.769 63.3145 17.7402 63.2793 17.7197C63.2451 17.6992 63.2007 17.689 63.146 17.689C63.0991 17.689 63.0586 17.6973 63.0244 17.7139C62.9902 17.7295 62.9639 17.7524 62.9453 17.7827C62.9268 17.812 62.9175 17.8467 62.9175 17.8867H62.4956C62.4956 17.8193 62.5112 17.7554 62.5425 17.6948C62.5737 17.6343 62.6191 17.5811 62.6787 17.5352C62.7383 17.4883 62.8091 17.4517 62.8911 17.4253C62.9741 17.3989 63.0669 17.3857 63.1694 17.3857C63.2925 17.3857 63.4019 17.4062 63.4976 17.4473C63.5933 17.4883 63.6685 17.5498 63.7231 17.6318C63.7788 17.7139 63.8066 17.8164 63.8066 17.9395V18.6177C63.8066 18.7046 63.812 18.7759 63.8228 18.8315C63.8335 18.8862 63.8491 18.9341 63.8696 18.9751V19H63.4434C63.4229 18.957 63.4072 18.9033 63.3965 18.8389C63.3867 18.7734 63.3818 18.708 63.3818 18.6426ZM63.4375 18.0347L63.4404 18.2734H63.2046C63.1489 18.2734 63.1006 18.2798 63.0596 18.2925C63.0186 18.3052 62.9849 18.3232 62.9585 18.3467C62.9321 18.3691 62.9126 18.3955 62.8999 18.4258C62.8882 18.4561 62.8823 18.4893 62.8823 18.5254C62.8823 18.5615 62.8906 18.5942 62.9072 18.6235C62.9238 18.6519 62.9478 18.6743 62.979 18.6909C63.0103 18.7065 63.0469 18.7144 63.0889 18.7144C63.1523 18.7144 63.2075 18.7017 63.2544 18.6763C63.3013 18.6509 63.3374 18.6196 63.3628 18.5825C63.3892 18.5454 63.4028 18.5103 63.4038 18.4771L63.5151 18.6558C63.4995 18.6958 63.478 18.7373 63.4507 18.7803C63.4243 18.8232 63.3906 18.8638 63.3496 18.9019C63.3086 18.939 63.2593 18.9697 63.2017 18.9941C63.144 19.0176 63.0757 19.0293 62.9966 19.0293C62.896 19.0293 62.8047 19.0093 62.7227 18.9692C62.6416 18.9282 62.5771 18.8721 62.5293 18.8008C62.4824 18.7285 62.459 18.6465 62.459 18.5547C62.459 18.4717 62.4746 18.3979 62.5059 18.3335C62.5371 18.269 62.583 18.2148 62.6436 18.1709C62.7051 18.126 62.7817 18.0923 62.8735 18.0698C62.9653 18.0464 63.0718 18.0347 63.1929 18.0347H63.4375Z" fill="white"/>
<defs>
<filter id="filter0_d_854_437" x="24.8999" y="3.8999" width="61.2002" height="19.2002" filterUnits="userSpaceOnUse" color-interpolation-filters="sRGB">
<feFlood flood-opacity="0" result="BackgroundImageFix"/>
<feColorMatrix in="SourceAlpha" type="matrix" values="0 0 0 0 0 0 0 0 0 0 0 0 0 0 0 0 0 0 127 0" result="hardAlpha"/>
<feOffset dx="1" dy="2"/>
<feGaussianBlur stdDeviation="0.5"/>
<feComposite in2="hardAlpha" operator="out"/>
<feColorMatrix type="matrix" values="0 0 0 0 0 0 0 0 0 0 0 0 0 0 0 0 0 0 0.25 0"/>
<feBlend mode="normal" in2="BackgroundImageFix" result="effect1_dropShadow_854_437"/>
<feBlend mode="normal" in="SourceGraphic" in2="effect1_dropShadow_854_437" result="shape"/>
</filter>
<filter id="filter1_d_854_437" x="2.88403" y="5.1333" width="29.5681" height="25.4824" filterUnits="userSpaceOnUse" color-interpolation-filters="sRGB">
<feFlood flood-opacity="0" result="BackgroundImageFix"/>
<feColorMatrix in="SourceAlpha" type="matrix" values="0 0 0 0 0 0 0 0 0 0 0 0 0 0 0 0 0 0 127 0" result="hardAlpha"/>
<feOffset dy="4"/>
<feGaussianBlur stdDeviation="2"/>
<feComposite in2="hardAlpha" operator="out"/>
<feColorMatrix type="matrix" values="0 0 0 0 0 0 0 0 0 0 0 0 0 0 0 0 0 0 0.25 0"/>
<feBlend mode="normal" in2="BackgroundImageFix" result="effect1_dropShadow_854_437"/>
<feBlend mode="normal" in="SourceGraphic" in2="effect1_dropShadow_854_437" result="shape"/>
</filter>
<filter id="filter2_d_854_437" x="3.20459" y="5.1333" width="29.2476" height="25.4824" filterUnits="userSpaceOnUse" color-interpolation-filters="sRGB">
<feFlood flood-opacity="0" result="BackgroundImageFix"/>
<feColorMatrix in="SourceAlpha" type="matrix" values="0 0 0 0 0 0 0 0 0 0 0 0 0 0 0 0 0 0 127 0" result="hardAlpha"/>
<feOffset dy="4"/>
<feGaussianBlur stdDeviation="2"/>
<feComposite in2="hardAlpha" operator="out"/>
<feColorMatrix type="matrix" values="0 0 0 0 0 0 0 0 0 0 0 0 0 0 0 0 0 0 0.25 0"/>
<feBlend mode="normal" in2="BackgroundImageFix" result="effect1_dropShadow_854_437"/>
<feBlend mode="normal" in="SourceGraphic" in2="effect1_dropShadow_854_437" result="shape"/>
</filter>
<filter id="filter3_d_854_437" x="0.983643" y="0" width="23.5833" height="31.2559" filterUnits="userSpaceOnUse" color-interpolation-filters="sRGB">
<feFlood flood-opacity="0" result="BackgroundImageFix"/>
<feColorMatrix in="SourceAlpha" type="matrix" values="0 0 0 0 0 0 0 0 0 0 0 0 0 0 0 0 0 0 127 0" result="hardAlpha"/>
<feOffset dy="4"/>
<feGaussianBlur stdDeviation="2"/>
<feComposite in2="hardAlpha" operator="out"/>
<feColorMatrix type="matrix" values="0 0 0 0 0 0 0 0 0 0 0 0 0 0 0 0 0 0 0.25 0"/>
<feBlend mode="normal" in2="BackgroundImageFix" result="effect1_dropShadow_854_437"/>
<feBlend mode="normal" in="SourceGraphic" in2="effect1_dropShadow_854_437" result="shape"/>
</filter>
<linearGradient id="paint0_linear_854_437" x1="9.71551" y1="10.4934" x2="11.4586" y2="17.4433" gradientUnits="userSpaceOnUse">
<stop stop-opacity="0.1"/>
<stop offset="1" stop-opacity="0.01"/>
</linearGradient>
</defs>
</svg>
